<svg width="170" height="49" viewBox="0 0 170 49" fill="none" xmlns="http://www.w3.org/2000/svg">
<path d="M0.855682 22.6089V0.98467H8.16231C9.85874 0.98467 11.2455 1.29087 12.3224 1.90328C13.4065 2.50864 14.2089 3.3287 14.7298 4.36346C15.2507 5.39821 15.5112 6.55263 15.5112 7.82671C15.5112 9.1008 15.2507 10.2587 14.7298 11.3005C14.216 12.3423 13.4205 13.1729 12.3436 13.7924C11.2666 14.4048 9.8869 14.711 8.20455 14.711H2.96742V12.3881H8.12008C9.28153 12.3881 10.2142 12.1875 10.9181 11.7862C11.622 11.385 12.1324 10.843 12.4491 10.1602C12.7729 9.47035 12.9348 8.69253 12.9348 7.82671C12.9348 6.9609 12.7729 6.18659 12.4491 5.5038C12.1324 4.821 11.6185 4.28603 10.9076 3.89887C10.1966 3.50468 9.25338 3.30759 8.07784 3.30759H3.47424V22.6089H0.855682Z" fill="#F12236"/>
<path d="M19.7294 22.6089V0.98467H27.036C28.7254 0.98467 30.1121 1.27327 31.1961 1.85048C32.2802 2.42065 33.0826 3.20552 33.6035 4.20508C34.1244 5.20464 34.3849 6.34146 34.3849 7.61554C34.3849 8.88962 34.1244 10.0194 33.6035 11.0049C33.0826 11.9904 32.2837 12.7647 31.2067 13.3278C30.1297 13.8839 28.7536 14.1619 27.0782 14.1619H21.1654V11.7968H26.9938C28.1482 11.7968 29.0774 11.6279 29.7813 11.29C30.4922 10.9521 31.0061 10.4734 31.3228 9.85399C31.6466 9.2275 31.8085 8.48135 31.8085 7.61554C31.8085 6.74973 31.6466 5.99302 31.3228 5.34542C30.999 4.69782 30.4817 4.19804 29.7707 3.84608C29.0598 3.48708 28.12 3.30759 26.9515 3.30759H22.3479V22.6089H19.7294ZM29.908 12.8949L35.2296 22.6089H32.1887L26.9515 12.8949H29.908Z" fill="#F12236"/>
<path d="M56.9937 11.7968C56.9937 14.0775 56.5819 16.0484 55.7583 17.7097C54.9348 19.3709 53.805 20.652 52.369 21.553C50.933 22.454 49.2929 22.9046 47.4486 22.9046C45.6044 22.9046 43.9643 22.454 42.5283 21.553C41.0923 20.652 39.9625 19.3709 39.1389 17.7097C38.3153 16.0484 37.9036 14.0775 37.9036 11.7968C37.9036 9.51611 38.3153 7.54515 39.1389 5.88391C39.9625 4.22268 41.0923 2.94155 42.5283 2.04054C43.9643 1.13953 45.6044 0.689026 47.4486 0.689026C49.2929 0.689026 50.933 1.13953 52.369 2.04054C53.805 2.94155 54.9348 4.22268 55.7583 5.88391C56.5819 7.54515 56.9937 9.51611 56.9937 11.7968ZM54.4596 11.7968C54.4596 9.92438 54.1464 8.34409 53.5199 7.05593C52.9004 5.76777 52.0593 4.79285 50.9964 4.13117C49.9405 3.46949 48.7579 3.13865 47.4486 3.13865C46.1394 3.13865 44.9533 3.46949 43.8903 4.13117C42.8345 4.79285 41.9933 5.76777 41.3668 7.05593C40.7474 8.34409 40.4376 9.92438 40.4376 11.7968C40.4376 13.6692 40.7474 15.2495 41.3668 16.5377C41.9933 17.8258 42.8345 18.8007 43.8903 19.4624C44.9533 20.1241 46.1394 20.4549 47.4486 20.4549C48.7579 20.4549 49.9405 20.1241 50.9964 19.4624C52.0593 18.8007 52.9004 17.8258 53.5199 16.5377C54.1464 15.2495 54.4596 13.6692 54.4596 11.7968Z" fill="#F12236"/>
<path d="M61.3967 22.6089V0.98467H68.7033C70.3997 0.98467 71.7865 1.29087 72.8634 1.90328C73.9475 2.50864 74.7499 3.3287 75.2708 4.36346C75.7917 5.39821 76.0522 6.55263 76.0522 7.82671C76.0522 9.1008 75.7917 10.2587 75.2708 11.3005C74.757 12.3423 73.9616 13.1729 72.8846 13.7924C71.8076 14.4048 70.4279 14.711 68.7456 14.711H63.5084V12.3881H68.6611C69.8225 12.3881 70.7552 12.1875 71.4591 11.7862C72.1631 11.385 72.6734 10.843 72.9902 10.1602C73.314 9.47035 73.4759 8.69253 73.4759 7.82671C73.4759 6.9609 73.314 6.18659 72.9902 5.5038C72.6734 4.821 72.1595 4.28603 71.4486 3.89887C70.7376 3.50468 69.7944 3.30759 68.6189 3.30759H64.0153V22.6089H61.3967Z" fill="#F12236"/>
<path d="M80.2704 22.6089V0.98467H82.8889V10.6142H94.4191V0.98467H97.0376V22.6089H94.4191V12.9371H82.8889V22.6089H80.2704Z" fill="#F12236"/>
<path d="M104.899 0.98467V22.6089H102.28V0.98467H104.899Z" fill="#F12236"/>
<path d="M111.416 0.98467L116.991 9.98069H117.16L122.735 0.98467H125.818L119.018 11.7968L125.818 22.6089H122.735L117.16 13.7818H116.991L111.416 22.6089H108.333L115.302 11.7968L108.333 0.98467H111.416Z" fill="#F12236"/>
<path d="M0.855682 48.4243V26.8H3.47424V36.4296H15.0044V26.8H17.6229V48.4243H15.0044V38.7525H3.47424V48.4243H0.855682Z" fill="#F12236"/>
<path d="M23.7522 48.4243H21.007L28.9471 26.8H31.6502L39.5903 48.4243H36.845L30.3831 30.221H30.2142L23.7522 48.4243ZM24.7659 39.9773H35.8314V42.3002H24.7659V39.9773Z" fill="#F12236"/>
<path d="M60.1059 26.8V48.4243H57.5718L45.7883 31.4459H45.5771V48.4243H42.9585V26.8H45.4926L57.3184 43.8207H57.5296V26.8H60.1059Z" fill="#F12236"/>
<path d="M72.0187 48.4243H65.3456V26.8H72.3144C74.4121 26.8 76.207 27.2329 77.6993 28.0987C79.1916 28.9575 80.3355 30.1929 81.1309 31.8048C81.9263 33.4098 82.3241 35.3315 82.3241 37.5699C82.3241 39.8224 81.9228 41.7617 81.1204 43.3878C80.3179 45.0068 79.1494 46.2527 77.6149 47.1255C76.0803 47.9914 74.215 48.4243 72.0187 48.4243ZM67.9642 46.1013H71.8498C73.6377 46.1013 75.1195 45.7564 76.295 45.0666C77.4706 44.3768 78.3469 43.3948 78.9241 42.1207C79.5014 40.8466 79.79 39.3297 79.79 37.5699C79.79 35.8242 79.5049 34.3213 78.9347 33.0613C78.3645 31.7943 77.5128 30.8229 76.3795 30.1471C75.2462 29.4643 73.8348 29.1229 72.1455 29.1229H67.9642V46.1013Z" fill="#F12236"/>
<path d="M83.8419 26.8H86.8405L92.8379 36.8941H93.0913L99.0887 26.8H102.087L94.2739 39.5127V48.4243H91.6553V39.5127L83.8419 26.8Z" fill="#F12236"/>
<path d="M105.474 26.8H108.599L115.948 44.7498H116.202L123.551 26.8H126.676V48.4243H124.226V31.9949H124.015L117.258 48.4243H114.892L108.135 31.9949H107.924V48.4243H105.474V26.8Z" fill="#F12236"/>
<path d="M132.813 48.4243H130.068L138.008 26.8H140.711L148.651 48.4243H145.906L139.444 30.221H139.275L132.813 48.4243ZM133.827 39.9773H144.892V42.3002H133.827V39.9773Z" fill="#F12236"/>
<path d="M169.167 26.8V48.4243H166.633L154.849 31.4459H154.638V48.4243H152.019V26.8H154.554L166.379 43.8207H166.59V26.8H169.167Z" fill="#F12236"/>
</svg>
