<svg width="43" height="47" viewBox="0 0 43 47" fill="none" xmlns="http://www.w3.org/2000/svg">
<path fill-rule="evenodd" clip-rule="evenodd" d="M3.1693 0.613007H27.4288C35.9571 0.613007 42.9296 7.58547 42.9296 16.1138C42.9296 24.6421 35.9571 31.6145 27.4288 31.6145H11.179C5.07088 31.6145 0.0576248 26.6013 0.0576248 20.4932V3.72468C0.0576248 1.99597 1.44059 0.613007 3.1693 0.613007ZM13.3687 10.9853H27.4288C30.2524 10.9853 32.615 13.2902 32.615 16.1714C32.615 18.9949 30.31 21.3575 27.4288 21.3575H13.3687C11.7552 21.3575 10.4299 20.0322 10.4299 18.4187V14.0393C10.4299 12.4258 11.7552 11.1005 13.3687 11.1005V10.9853Z" fill="#F12236"/>
<path d="M6.22335 47C9.66041 47 12.4467 44.2137 12.4467 40.7766C12.4467 37.3396 9.66041 34.5533 6.22335 34.5533C2.78629 34.5533 0 37.3396 0 40.7766C0 44.2137 2.78629 47 6.22335 47Z" fill="#F12236"/>
</svg>
