<svg width="234" height="49" viewBox="0 0 234 49" fill="none" xmlns="http://www.w3.org/2000/svg">
<path d="M61.8557 22.6089V0.98467H69.1623C70.8587 0.98467 72.2455 1.29087 73.3224 1.90328C74.4065 2.50864 75.2089 3.3287 75.7298 4.36346C76.2507 5.39821 76.5112 6.55263 76.5112 7.82671C76.5112 9.1008 76.2507 10.2587 75.7298 11.3005C75.216 12.3423 74.4205 13.1729 73.3436 13.7924C72.2666 14.4048 70.8869 14.711 69.2045 14.711H63.9674V12.3881H69.1201C70.2815 12.3881 71.2142 12.1875 71.9181 11.7862C72.622 11.385 73.1324 10.843 73.4491 10.1602C73.7729 9.47035 73.9348 8.69253 73.9348 7.82671C73.9348 6.9609 73.7729 6.18659 73.4491 5.5038C73.1324 4.821 72.6185 4.28603 71.9076 3.89887C71.1966 3.50468 70.2534 3.30759 69.0778 3.30759H64.4742V22.6089H61.8557Z" fill="#F12236"/>
<path d="M80.7294 22.6089V0.98467H88.036C89.7254 0.98467 91.1121 1.27327 92.1961 1.85048C93.2802 2.42065 94.0826 3.20552 94.6035 4.20508C95.1244 5.20464 95.3849 6.34146 95.3849 7.61554C95.3849 8.88962 95.1244 10.0194 94.6035 11.0049C94.0826 11.9904 93.2837 12.7647 92.2067 13.3278C91.1297 13.8839 89.7536 14.1619 88.0782 14.1619H82.1654V11.7968H87.9938C89.1482 11.7968 90.0774 11.6279 90.7813 11.29C91.4922 10.9521 92.0061 10.4734 92.3228 9.85399C92.6466 9.2275 92.8085 8.48135 92.8085 7.61554C92.8085 6.74973 92.6466 5.99302 92.3228 5.34542C91.999 4.69782 91.4817 4.19804 90.7707 3.84608C90.0598 3.48708 89.12 3.30759 87.9515 3.30759H83.3479V22.6089H80.7294ZM90.908 12.8949L96.2296 22.6089H93.1887L87.9515 12.8949H90.908Z" fill="#F12236"/>
<path d="M117.994 11.7968C117.994 14.0775 117.582 16.0484 116.758 17.7097C115.935 19.3709 114.805 20.652 113.369 21.553C111.933 22.454 110.293 22.9046 108.449 22.9046C106.604 22.9046 104.964 22.454 103.528 21.553C102.092 20.652 100.963 19.3709 100.139 17.7097C99.3153 16.0484 98.9036 14.0775 98.9036 11.7968C98.9036 9.51611 99.3153 7.54515 100.139 5.88391C100.963 4.22268 102.092 2.94155 103.528 2.04054C104.964 1.13953 106.604 0.689026 108.449 0.689026C110.293 0.689026 111.933 1.13953 113.369 2.04054C114.805 2.94155 115.935 4.22268 116.758 5.88391C117.582 7.54515 117.994 9.51611 117.994 11.7968ZM115.46 11.7968C115.46 9.92438 115.146 8.34409 114.52 7.05593C113.9 5.76777 113.059 4.79285 111.996 4.13117C110.94 3.46949 109.758 3.13865 108.449 3.13865C107.139 3.13865 105.953 3.46949 104.89 4.13117C103.834 4.79285 102.993 5.76777 102.367 7.05593C101.747 8.34409 101.438 9.92438 101.438 11.7968C101.438 13.6692 101.747 15.2495 102.367 16.5377C102.993 17.8258 103.834 18.8007 104.89 19.4624C105.953 20.1241 107.139 20.4549 108.449 20.4549C109.758 20.4549 110.94 20.1241 111.996 19.4624C113.059 18.8007 113.9 17.8258 114.52 16.5377C115.146 15.2495 115.46 13.6692 115.46 11.7968Z" fill="#F12236"/>
<path d="M122.397 22.6089V0.98467H129.703C131.4 0.98467 132.786 1.29087 133.863 1.90328C134.947 2.50864 135.75 3.3287 136.271 4.36346C136.792 5.39821 137.052 6.55263 137.052 7.82671C137.052 9.1008 136.792 10.2587 136.271 11.3005C135.757 12.3423 134.962 13.1729 133.885 13.7924C132.808 14.4048 131.428 14.711 129.746 14.711H124.508V12.3881H129.661C130.823 12.3881 131.755 12.1875 132.459 11.7862C133.163 11.385 133.673 10.843 133.99 10.1602C134.314 9.47035 134.476 8.69253 134.476 7.82671C134.476 6.9609 134.314 6.18659 133.99 5.5038C133.673 4.821 133.16 4.28603 132.449 3.89887C131.738 3.50468 130.794 3.30759 129.619 3.30759H125.015V22.6089H122.397Z" fill="#F12236"/>
<path d="M141.27 22.6089V0.98467H143.889V10.6142H155.419V0.98467H158.038V22.6089H155.419V12.9371H143.889V22.6089H141.27Z" fill="#F12236"/>
<path d="M165.899 0.98467V22.6089H163.28V0.98467H165.899Z" fill="#F12236"/>
<path d="M172.416 0.98467L177.991 9.98069H178.16L183.735 0.98467H186.818L180.018 11.7968L186.818 22.6089H183.735L178.16 13.7818H177.991L172.416 22.6089H169.333L176.302 11.7968L169.333 0.98467H172.416Z" fill="#F12236"/>
<path d="M61.8557 48.4243V26.8H64.4742V36.4296H76.0044V26.8H78.6229V48.4243H76.0044V38.7525H64.4742V48.4243H61.8557Z" fill="#F12236"/>
<path d="M84.7522 48.4243H82.007L89.9471 26.8H92.6502L100.59 48.4243H97.845L91.3831 30.221H91.2142L84.7522 48.4243ZM85.7659 39.9773H96.8314V42.3002H85.7659V39.9773Z" fill="#F12236"/>
<path d="M121.106 26.8V48.4243H118.572L106.788 31.4459H106.577V48.4243H103.959V26.8H106.493L118.318 43.8207H118.53V26.8H121.106Z" fill="#F12236"/>
<path d="M133.019 48.4243H126.346V26.8H133.314C135.412 26.8 137.207 27.2329 138.699 28.0987C140.192 28.9575 141.335 30.1929 142.131 31.8048C142.926 33.4098 143.324 35.3315 143.324 37.5699C143.324 39.8224 142.923 41.7617 142.12 43.3878C141.318 45.0068 140.149 46.2527 138.615 47.1255C137.08 47.9914 135.215 48.4243 133.019 48.4243ZM128.964 46.1013H132.85C134.638 46.1013 136.119 45.7564 137.295 45.0666C138.471 44.3768 139.347 43.3948 139.924 42.1207C140.501 40.8466 140.79 39.3297 140.79 37.5699C140.79 35.8242 140.505 34.3213 139.935 33.0613C139.365 31.7943 138.513 30.8229 137.38 30.1471C136.246 29.4643 134.835 29.1229 133.145 29.1229H128.964V46.1013Z" fill="#F12236"/>
<path d="M144.842 26.8H147.841L153.838 36.8941H154.091L160.089 26.8H163.087L155.274 39.5127V48.4243H152.655V39.5127L144.842 26.8Z" fill="#F12236"/>
<path d="M166.474 26.8H169.599L176.948 44.7498H177.202L184.551 26.8H187.676V48.4243H185.226V31.9949H185.015L178.258 48.4243H175.892L169.135 31.9949H168.924V48.4243H166.474V26.8Z" fill="#F12236"/>
<path d="M193.813 48.4243H191.068L199.008 26.8H201.711L209.651 48.4243H206.906L200.444 30.221H200.275L193.813 48.4243ZM194.827 39.9773H205.892V42.3002H194.827V39.9773Z" fill="#F12236"/>
<path d="M230.167 26.8V48.4243H227.633L215.849 31.4459H215.638V48.4243H213.019V26.8H215.554L227.379 43.8207H227.59V26.8H230.167Z" fill="#F12236"/>
<path fill-rule="evenodd" clip-rule="evenodd" d="M3.1693 2.61301H27.4288C35.9571 2.61301 42.9296 9.58547 42.9296 18.1138C42.9296 26.6421 35.9571 33.6145 27.4288 33.6145H11.179C5.07088 33.6145 0.0576248 28.6013 0.0576248 22.4932V5.72468C0.0576248 3.99597 1.44059 2.61301 3.1693 2.61301ZM13.3687 12.9853H27.4288C30.2524 12.9853 32.615 15.2902 32.615 18.1714C32.615 20.9949 30.31 23.3575 27.4288 23.3575H13.3687C11.7552 23.3575 10.4299 22.0322 10.4299 20.4187V16.0393C10.4299 14.4258 11.7552 13.1005 13.3687 13.1005V12.9853Z" fill="#F12236"/>
<path d="M6.22335 49C9.66041 49 12.4467 46.2137 12.4467 42.7766C12.4467 39.3396 9.66041 36.5533 6.22335 36.5533C2.78629 36.5533 0 39.3396 0 42.7766C0 46.2137 2.78629 49 6.22335 49Z" fill="#F12236"/>
</svg>
